<svg width="11" height="15" viewBox="0 0 11 15" fill="none" xmlns="http://www.w3.org/2000/svg">
<path fill-rule="evenodd" clip-rule="evenodd" d="M9.90971 8.0014L6.90835 12.7058L5.53249 14.8618C5.47764 14.9477 5.38115 15 5.27745 15H5.27485C5.17016 14.9992 5.07367 14.9452 5.01982 14.8575L3.70781 12.7175L0.814149 7.99692C0.805741 7.98326 0.798735 7.96921 0.792729 7.95477C0.274052 7.13031 0 6.18878 0 5.22773C0 2.34516 2.40601 0 5.36313 0C8.32025 0 10.7261 2.34516 10.7261 5.22773C10.7261 6.18858 10.4524 7.12973 9.93414 7.9536C9.92773 7.97018 9.91952 7.98618 9.90971 8.0014ZM1.33182 7.69114C0.853385 6.94883 0.600552 6.09706 0.600552 5.22773C0.600552 2.66792 2.73692 0.585411 5.36313 0.585411C7.98915 0.585411 10.1255 2.66792 10.1255 5.22773C10.1255 6.09745 9.87268 6.94922 9.39444 7.69114C9.38443 7.70675 9.37622 7.72294 9.36962 7.73973L6.1987 12.7093C6.15927 12.7682 6.14603 12.7895 6.10962 12.8479C6.10203 12.8601 6.09344 12.8739 6.0834 12.89L5.28266 14.1451L1.35865 7.74382C1.35164 7.72568 1.34263 7.70792 1.33182 7.69114ZM5.35552 3.32722C6.43073 3.32722 7.30555 4.17992 7.30555 5.22793C7.30555 6.27594 6.43073 7.12863 5.35552 7.12863C4.28031 7.12863 3.40549 6.27594 3.40549 5.22793C3.40549 4.17992 4.28031 3.32722 5.35552 3.32722ZM5.35552 3.9126C4.61142 3.9126 4.00605 4.50265 4.00605 5.22793C4.00605 5.9532 4.61122 6.54326 5.35552 6.54326C6.09982 6.54326 6.70498 5.9532 6.70498 5.22793C6.70498 4.50265 6.09962 3.9126 5.35552 3.9126Z" fill="white"/>
</svg>
