<svg width="15" height="10" viewBox="0 0 15 10" fill="none" xmlns="http://www.w3.org/2000/svg">
<path d="M14.9863 9.11332C14.9944 9.08934 15 9.06402 15 9.03739V0.247996C15 0.221195 14.9944 0.195717 14.9861 0.171563C14.9849 0.168254 14.9842 0.164945 14.9828 0.161636C14.9716 0.133345 14.9553 0.107868 14.9347 0.0855331C14.9334 0.0840441 14.9332 0.0822244 14.9318 0.0807354C14.9309 0.0799082 14.9299 0.0795772 14.929 0.0787499C14.9071 0.0565808 14.8812 0.0387132 14.8521 0.0253125C14.8498 0.0243198 14.8481 0.0229962 14.8458 0.0220036C14.8183 0.0102573 14.7884 0.00363974 14.7569 0.00165445C14.7538 0.00148901 14.7508 0.000827067 14.7477 0.000827067C14.7447 0.000661626 14.7421 0 14.7392 0H0.26118C0.258222 0 0.255438 0.000661626 0.252479 0.000827067C0.249695 0.000992508 0.246911 0.00148901 0.244127 0.00165445C0.212285 0.00363974 0.181834 0.0104228 0.153993 0.0223346C0.152253 0.0229964 0.150861 0.0241543 0.149121 0.0248161C0.119541 0.0382168 0.093266 0.0564153 0.0711676 0.0789153C0.0702975 0.0797425 0.0692535 0.0799082 0.0683834 0.0807354C0.0669914 0.0820589 0.0668175 0.0838788 0.0654254 0.0853677C0.044893 0.107702 0.0283626 0.133345 0.0172264 0.161636C0.0158343 0.164945 0.0151383 0.168254 0.0139203 0.171728C0.00556811 0.195882 0 0.22136 0 0.248162V9.03772C0 9.06485 0.00574209 9.09066 0.0142683 9.11514C0.0154863 9.11845 0.0161823 9.1216 0.0174004 9.1249C0.0287106 9.15336 0.0454149 9.179 0.0661214 9.20134C0.0673394 9.20266 0.0676875 9.20432 0.0689055 9.20564C0.0699495 9.2068 0.0713415 9.20746 0.0725596 9.20862C0.0810857 9.21706 0.0904819 9.2245 0.100226 9.23178C0.104576 9.23492 0.108404 9.23873 0.112928 9.24171C0.124413 9.24932 0.136767 9.25544 0.149469 9.26106C0.152601 9.26239 0.155385 9.26454 0.158517 9.2657C0.190012 9.27843 0.224639 9.28571 0.261006 9.28571H14.7388C14.7752 9.28571 14.8098 9.2786 14.8413 9.2657C14.8462 9.26371 14.8507 9.26073 14.8554 9.25842C14.8662 9.25329 14.877 9.24799 14.8869 9.24154C14.8921 9.23807 14.8968 9.2336 14.9019 9.2298C14.9107 9.22301 14.9194 9.21623 14.9271 9.20845C14.9285 9.20713 14.9301 9.20614 14.9314 9.20481C14.9328 9.20332 14.9332 9.20134 14.9346 9.19985C14.9549 9.17768 14.9713 9.1522 14.9824 9.12408C14.9842 9.12044 14.985 9.11696 14.9863 9.11332ZM0.522185 0.810827L4.91526 4.62607L0.522185 8.47174V0.810827ZM9.52619 4.43912C9.50809 4.45037 9.48895 4.4598 9.47381 4.47568C9.46807 4.48164 9.46616 4.48941 9.46111 4.4957L7.50009 6.19875L0.933879 0.496158H14.0663L9.52619 4.43912ZM5.30224 4.96208L7.324 6.7179C7.37393 6.76125 7.43692 6.78292 7.50009 6.78292C7.56325 6.78292 7.62624 6.76125 7.676 6.7179L9.6727 4.98391L14.0651 8.78939H0.93005L5.30224 4.96208ZM10.0599 4.64774L14.478 0.810827V8.47571L10.0599 4.64774Z" fill="white"/>
</svg>
