<svg width="15" height="15" viewBox="0 0 15 15" fill="none" xmlns="http://www.w3.org/2000/svg">
<path d="M3.03968 9.97099C4.52478 11.7395 6.31251 13.132 8.35295 14.1173C9.12982 14.484 10.1688 14.9192 11.3263 14.9938C11.398 14.9969 11.4667 15 11.5384 15C12.3153 15 12.9393 14.7327 13.4478 14.1826C13.4509 14.1794 13.4572 14.1732 13.4603 14.167C13.6413 13.9494 13.8472 13.7536 14.0625 13.5454C14.2091 13.4055 14.3588 13.2594 14.5024 13.1102C15.1669 12.4202 15.1669 11.5437 14.4961 10.8755L12.621 9.00746C12.3028 8.67799 11.9222 8.50394 11.5228 8.50394C11.1235 8.50394 10.7397 8.67799 10.4121 9.00435L9.29517 10.1171C9.19222 10.058 9.08614 10.0052 8.9863 9.95545C8.8615 9.89329 8.74606 9.83423 8.64311 9.76896C7.626 9.12557 6.7025 8.28637 5.81955 7.20783C5.3734 6.64525 5.07389 6.17281 4.86485 5.69105C5.15813 5.42685 5.43268 5.15023 5.69788 4.87982C5.79147 4.78346 5.88819 4.68711 5.98491 4.59076C6.32187 4.25508 6.50282 3.86656 6.50282 3.47182C6.50282 3.07708 6.32499 2.68856 5.98491 2.35288L5.05517 1.42665C4.94597 1.31786 4.84301 1.21218 4.73693 1.1034C4.53102 0.892043 4.31574 0.674472 4.10358 0.478657C3.78223 0.164733 3.40472 0 3.00536 0C2.60913 0 2.2285 0.164733 1.89466 0.481765L0.727802 1.64422C0.303489 2.06693 0.0632535 2.57978 0.0133344 3.17344C-0.0459446 3.91629 0.0913331 4.70576 0.447007 5.65997C0.992998 7.13634 1.81666 8.50704 3.03968 9.97099ZM0.774601 3.23871C0.812041 2.82532 0.971158 2.48031 1.27067 2.18193L2.43129 1.02569C2.61225 0.851637 2.81193 0.7615 3.00536 0.7615C3.19568 0.7615 3.38912 0.851637 3.56695 1.03191C3.77599 1.22462 3.97255 1.42665 4.1847 1.64111C4.29078 1.7499 4.39998 1.85868 4.50918 1.97058L5.43892 2.89681C5.63236 3.08951 5.7322 3.28533 5.7322 3.47804C5.7322 3.67074 5.63236 3.86656 5.43892 4.05926C5.3422 4.15562 5.24548 4.25508 5.14877 4.35143C4.85861 4.6436 4.58718 4.92022 4.28766 5.18442C4.28142 5.19063 4.2783 5.19374 4.27206 5.19996C4.01311 5.45794 4.05367 5.70348 4.11606 5.88997C4.11918 5.8993 4.1223 5.90551 4.12542 5.91484C4.36566 6.48985 4.69949 7.03688 5.22052 7.6896C6.15651 8.83962 7.14241 9.73166 8.22815 10.4186C8.36231 10.5056 8.50583 10.574 8.63999 10.6424C8.76478 10.7045 8.88022 10.7636 8.98318 10.8288C8.99566 10.8351 9.00502 10.8413 9.0175 10.8475C9.12046 10.9003 9.2203 10.9252 9.32013 10.9252C9.56973 10.9252 9.73197 10.7667 9.78501 10.7138L10.9519 9.55139C11.1328 9.37111 11.3294 9.27476 11.5228 9.27476C11.7599 9.27476 11.9534 9.42085 12.075 9.55139L13.9564 11.4225C14.3308 11.7955 14.3276 12.1995 13.947 12.5943C13.816 12.7341 13.6787 12.8678 13.5321 13.0077C13.3137 13.219 13.0859 13.4366 12.88 13.6821C12.5212 14.0676 12.0938 14.2478 11.5415 14.2478C11.4885 14.2478 11.4323 14.2447 11.3793 14.2416C10.356 14.1763 9.40437 13.7785 8.6899 13.4397C6.7493 12.5041 5.04581 11.177 3.63247 9.49233C2.46873 8.09677 1.68563 6.79755 1.16771 5.4051C0.84636 4.55035 0.724682 3.86345 0.774601 3.23871Z" fill="white"/>
</svg>
